<?xml version="1.0" encoding="utf-8"?>
<!-- Generator: Adobe Illustrator 24.1.2, SVG Export Plug-In . SVG Version: 6.00 Build 0)  -->
<svg version="1.1" xmlns="http://www.w3.org/2000/svg" xmlns:xlink="http://www.w3.org/1999/xlink" x="0px" y="0px"
	 viewBox="0 0 216 62" style="enable-background:new 0 0 216 62;" xml:space="preserve">
<style type="text/css">
	.st0{display:none;}
	.st1{display:inline;}
	.st2{display:inline;clip-path:url(#SVGID_2_);}
	.st3{fill:#F04D37;}
</style>
<g id="Layer_1">
	<g class="st0">
		<defs>
			<rect id="SVGID_1_" x="-1101.8" y="869.8" width="53.4" height="53.4"/>
		</defs>
		<clipPath id="SVGID_2_" class="st1">
			<use xlink:href="#SVGID_1_"  style="overflow:visible;"/>
		</clipPath>
		<g class="st2">
			<path d="M-1103.1,806.2c1.3,0,2.3-1,2.3-2.3c0-1.1-0.8-2-1.9-2.2l0-10.2h-0.8l0,10.2c-1.1,0.2-1.9,1.1-1.9,2.2
				C-1105.3,805.2-1104.3,806.2-1103.1,806.2z"/>
			<path d="M-1110.9,831.9c-1.1,0.2-1.9,1.1-1.9,2.2c0,1.3,1,2.3,2.3,2.3c1.3,0,2.3-1,2.3-2.3c0-1.1-0.8-2-1.9-2.2l0-12.3l11.7-11.7
				l0-16.4h-0.8l0,16.1l-11.7,11.7L-1110.9,831.9z"/>
			<path d="M-1123.9,829.7c1.3,0,2.3-1,2.3-2.3c0-1-0.6-1.8-1.5-2.1l0-12.1l11.7-11.7l0-10h-0.8l0,9.7l-11.7,11.7l0,12.2
				c-1.3,0-2.3,1-2.3,2.3C-1126.2,828.7-1125.1,829.7-1123.9,829.7z"/>
			<path d="M-1124.5,849.7c1.3,0,2.3-1,2.3-2.3c0-0.4-0.1-0.8-0.3-1.1l3.7-3.7l0-27.2l11.7-11.7l0-12.3h-0.8l0,12l-11.7,11.7l0,27.2
				l-3.4,3.4c-0.4-0.4-0.9-0.6-1.5-0.6c-1.3,0-2.3,1-2.3,2.3C-1126.7,848.7-1125.7,849.7-1124.5,849.7z"/>
			<path d="M-1058,863.2l0,28.9c-1.1,0.2-1.9,1.1-1.9,2.2c0,1.3,1,2.3,2.3,2.3c1.3,0,2.3-1,2.3-2.3c0-1.1-0.8-2-1.9-2.2l0-28.6
				l25-24.9l0-47.1h-0.8l0,46.8L-1058,863.2z"/>
			<path d="M-1053.7,865.1l-0.1,32.9l-11.7,11.7l0,12.7c-1.1,0.2-1.9,1.1-1.9,2.2c0,1.3,1,2.3,2.3,2.3c1.3,0,2.3-1,2.3-2.3
				c0-1.1-0.8-2-1.9-2.2l0-12.3l11.7-11.7l0.1-32.9l25-24.9l0-49h-0.8l0,48.7L-1053.7,865.1z"/>
			<path d="M-1071.1,859.6c1.3,0,2.3-1,2.3-2.3c0-0.5-0.2-0.9-0.4-1.3l23.9-23.8l0-40.7h-0.8l0,40.4l-23.7,23.6
				c-0.4-0.3-0.8-0.4-1.3-0.4c-1.3,0-2.3,1-2.3,2.3C-1073.4,858.5-1072.4,859.6-1071.1,859.6z"/>
			<path d="M-1066.7,858.8l-0.1,32.9l-11.7,11.7l0,12.2c-1.3,0-2.3,1-2.3,2.3c0,1.3,1,2.3,2.3,2.3c1.3,0,2.3-1,2.3-2.3
				c0-1-0.6-1.8-1.5-2.1l0-12.1l11.7-11.7l0.1-32.9l25-24.9l0-42.7h-0.8l0,42.3L-1066.7,858.8z"/>
			<path d="M-1062.3,861l-0.1,32.9l-11.7,11.7l0,27.2l-3.4,3.4c-0.4-0.4-0.9-0.6-1.5-0.6c-1.3,0-2.3,1-2.3,2.3c0,1.3,1,2.3,2.3,2.3
				c1.3,0,2.3-1,2.3-2.3c0-0.4-0.1-0.8-0.3-1.1l3.7-3.7l0-27.2l11.7-11.7l0.1-32.9l25-24.9l0-44.9h-0.8l0,44.6L-1062.3,861z"/>
			<path d="M-1076.1,875.2l-7.8,9.4c-0.3-0.1-0.6-0.2-0.9-0.2c-1.3,0-2.3,1-2.3,2.3c0,1.3,1,2.3,2.3,2.3c1.3,0,2.3-1,2.3-2.3
				c0-0.7-0.3-1.3-0.8-1.7l7.9-9.5l-0.1-50.1l-11.3-11.3l0-22.5h-0.8l0,22.8l11.3,11.3L-1076.1,875.2z"/>
			<path d="M-1087.1,839c0,1.3,1,2.3,2.3,2.3c1.3,0,2.3-1,2.3-2.3c0-1.3-1-2.3-2.3-2.3c-0.5,0-0.9,0.2-1.3,0.4l-7.8-7.8l0-37.8h-0.8
				l-0.2,37.9l8.3,8.3C-1086.9,838-1087.1,838.5-1087.1,839z"/>
			<path d="M-1088.9,826c0.5,0,1-0.2,1.4-0.5l7.1,7.1l0.1,37.9l-3.8,4.5c-0.3-0.2-0.6-0.3-0.9-0.4l-0.8,0c-1.1,0.2-1.9,1.1-1.9,2.2
				c0,0.6,0.3,1.2,0.7,1.6l0.2,0.2c0.4,0.3,0.9,0.5,1.4,0.5c1.3,0,2.3-1,2.3-2.3c0-0.5-0.2-1-0.5-1.3l4-4.8l-0.1-38.5l-7.3-7.3
				c0.2-0.3,0.3-0.8,0.3-1.2c0-1.3-1-2.3-2.3-2.3c-1.3,0-2.3,1-2.3,2.3C-1091.1,824.9-1090.1,826-1088.9,826z"/>
			<path d="M-1054.3,1028.9c-1.3,0-2.3,1-2.3,2.3c0,1.1,0.8,2,1.9,2.2l-0.1,40.3h0.8l0.1-40.3c1.1-0.2,1.9-1.1,1.9-2.2
				C-1052,1029.9-1053,1028.9-1054.3,1028.9z"/>
			<path d="M-1019.9,934.5l0-28.9c1.1-0.2,1.9-1.1,1.9-2.2c0-1.3-1-2.3-2.3-2.3c-1.3,0-2.3,1-2.3,2.3c0,1.1,0.8,2,1.9,2.2l0,28.6
				l-25,24.9l0.1,114.6h0.8l-0.1-114.3L-1019.9,934.5z"/>
			<path d="M-1024.2,932.6l0.1-32.9l11.7-11.7l0-12.7c1.1-0.2,1.9-1.1,1.9-2.2c0-1.3-1-2.3-2.3-2.3c-1.3,0-2.3,1-2.3,2.3
				c0,1.1,0.8,2,1.9,2.2l0,12.3l-11.7,11.7l-0.1,32.9l-25,24.9l0.1,116.5h0.8l-0.1-116.2L-1024.2,932.6z"/>
			<path d="M-1006.8,938.2c-1.3,0-2.3,1-2.3,2.3c0,0.5,0.2,0.9,0.4,1.3l-23.9,23.8l0.1,108.1h0.8l-0.1-107.8l23.7-23.6
				c0.4,0.3,0.8,0.4,1.3,0.4c1.3,0,2.3-1,2.3-2.3C-1004.5,939.2-1005.6,938.2-1006.8,938.2z"/>
			<path d="M-999.4,877.7c-1.3,0-2.3,1-2.3,2.3c0,1,0.6,1.8,1.5,2.1l0,12.1l-11.7,11.7l-0.1,32.9l-25,24.9l0.1,110.1h0.8l-0.1-109.8
				l25-24.9l0.1-32.9l11.7-11.7l0-12.2c1.3,0,2.3-1,2.3-2.3C-997.2,878.7-998.2,877.7-999.4,877.7z"/>
			<path d="M-1015.6,936.7l0.1-32.9l11.7-11.7l0-27.2l3.4-3.4c0.4,0.4,0.9,0.6,1.5,0.6c1.3,0,2.3-1,2.3-2.3c0-1.3-1-2.3-2.3-2.3
				c-1.3,0-2.3,1-2.3,2.3c0,0.4,0.1,0.8,0.3,1.1l-3.7,3.7l0,27.2l-11.7,11.7l-0.1,32.9l-25,24.9l0.1,112.4h0.8l-0.1-112.1
				L-1015.6,936.7z"/>
			<path d="M-1123.9,903.3l-12.5-12.4l-0.1-41.4c1.1-0.2,1.9-1.1,1.9-2.2c0-1.3-1-2.3-2.3-2.3c-1.3,0-2.3,1-2.3,2.3
				c0,1.1,0.8,2,1.9,2.2l0.1,41.7l12.5,12.4l0.1,32.9l25,24.9l-0.1,112.4h0.8l0.1-112.7l-25-24.9L-1123.9,903.3z"/>
			<path d="M-1120.1,905.8c1.1-0.2,1.9-1.1,1.9-2.2c0-1.3-1-2.3-2.3-2.3c-1.3,0-2.3,1-2.3,2.3c0,1.1,0.8,2,1.9,2.2l0,28.9l25,24.9
				l-0.1,114.1h0.8l0.1-114.4l-25-24.9L-1120.1,905.8z"/>
			<path d="M-1135.1,940.2c0-1.3-1-2.3-2.3-2.3c-1.3,0-2.3,1-2.3,2.3c0,1.3,1,2.3,2.3,2.3c0.5,0,0.9-0.2,1.3-0.4l23.7,23.6
				l-0.1,108.1h0.8l0.1-108.4l-23.9-23.8C-1135.2,941.2-1135.1,940.7-1135.1,940.2z"/>
			<path d="M-1028.6,931.3l0.1-32.9l11.7-11.7l0-27.2l3.2-3.2c0.4,0.5,1,0.8,1.7,0.8c1.3,0,2.3-1,2.3-2.3c0-1.3-1-2.3-2.3-2.3
				c-1.3,0-2.3,1-2.3,2.3c0,0.3,0.1,0.6,0.2,0.8l-3.6,3.6l0,27.2l-11.7,11.7l-0.1,32.9l-22.3,22.2c-0.4-0.4-1-0.7-1.6-0.7
				c-1.3,0-2.3,1-2.3,2.3c0,1.3,1,2.3,2.3,2.3c0.5,0,0.9-0.2,1.3-0.4l0.5-0.5c0.3-0.4,0.4-0.8,0.4-1.3c0-0.3-0.1-0.7-0.2-1
				L-1028.6,931.3z"/>
			<path d="M-1132.2,906.1l-11.7-11.7l0-12.1c0.9-0.3,1.5-1.1,1.5-2.1c0-1.3-1-2.3-2.3-2.3c-1.3,0-2.3,1-2.3,2.3
				c0,1.3,1,2.3,2.3,2.3l0,12.2l11.7,11.7l0.1,32.9l25,24.9l-0.1,109.6h0.8l0.1-109.9l-25-24.9L-1132.2,906.1z"/>
			<path d="M-1083.8,1005.9c0,1.3,1,2.3,2.3,2.3c0.5,0,0.9-0.2,1.3-0.4l0.5-0.5c0.3-0.4,0.4-0.8,0.4-1.3c0-1.3-1-2.3-2.3-2.3
				c-0.6,0-1.2,0.2-1.6,0.6l-7.8-7.8l0-38.2l-25-24.9l-0.1-32.9l-11.7-11.7l0-12.3c1.1-0.2,1.9-1.1,1.9-2.2c0-1.3-1-2.3-2.3-2.3
				c-1.3,0-2.3,1-2.3,2.3c0,1.1,0.8,2,1.9,2.2l0,12.7l11.7,11.7l0.1,32.9l25,24.9l0,37.1l-0.1-0.1v1.1l0.1,0.1v0h0l8,8
				C-1083.7,1005.2-1083.8,1005.6-1083.8,1005.9z"/>
			<path d="M-1127.9,904.8l-11.7-11.7l0-27.2l-3.7-3.7c0.2-0.3,0.3-0.7,0.3-1.1c0-1.3-1-2.3-2.3-2.3c-1.3,0-2.3,1-2.3,2.3
				c0,1.3,1,2.3,2.3,2.3c0.6,0,1.1-0.2,1.5-0.6l3.4,3.4l0,27.2l11.7,11.7l0.1,32.9l25,24.9l-0.1,110.9h0.8l0.1-111.2l-25-24.9
				L-1127.9,904.8z"/>
			<path d="M-1068,1029.9l0.1-50.1l-7.9-9.5c0.5-0.4,0.8-1,0.8-1.7c0-1.3-1-2.3-2.3-2.3c-1.3,0-2.3,1-2.3,2.3c0,1.3,1,2.3,2.3,2.3
				c0.3,0,0.6-0.1,0.9-0.2l7.8,9.4l-0.1,49.6l-11.3,11.3l0,32.8h0.8l0-32.5L-1068,1029.9z"/>
			<path d="M-1073,1048.2c0-1.3-1-2.3-2.3-2.3c-1.3,0-2.3,1-2.3,2.3c0,1.3,1,2.3,2.3,2.3c0.6,0,1.2-0.3,1.6-0.7l5.4,6.5l0,17.4h0.8
				l0-17.7l-5.7-6.8C-1073.1,1048.9-1073,1048.6-1073,1048.2z"/>
			<path d="M-1033.4,886.1l-0.1,42.7l-10,10c-0.4-0.3-0.8-0.4-1.3-0.4c-1.3,0-2.3,1-2.3,2.3c0,1.3,1,2.3,2.3,2.3
				c1.3,0,2.3-1,2.3-2.3c0-0.5-0.2-0.9-0.4-1.3l10.3-10.2l0.1-42.7l6.8-6.8c0.4,0.4,0.9,0.6,1.5,0.6c1.3,0,2.3-1,2.3-2.3
				c0-1.3-1-2.3-2.3-2.3c-1.3,0-2.3,1-2.3,2.3c0,0.4,0.1,0.8,0.3,1.1L-1033.4,886.1z"/>
			<path d="M-1053.7,1009.1l0.1-33.2l-42.2-42.4l0-16.3l10.6-10.6c0.4,0.4,0.9,0.6,1.5,0.6c1.3,0,2.3-1,2.3-2.3c0-1.3-1-2.3-2.3-2.3
				c-1.3,0-2.3,1-2.3,2.3c0,0.4,0.1,0.8,0.3,1.1l-10.9,10.8l0,16.9l42.2,42.4l-0.1,32.5l-4.9,4.9l0.1,60.1h0.8l-0.1-59.8
				L-1053.7,1009.1z"/>
			<path d="M-1058.2,1009l0.1-33.2l-42.2-42.4l0-16.3l12.5-12.4l0-7.7c1.1-0.2,1.9-1.1,1.9-2.2c0-1.3-1-2.3-2.3-2.3
				c-1.3,0-2.3,1-2.3,2.3c0,1.1,0.8,2,1.9,2.2l0,7.4l-12.5,12.4l0,16.9l42.2,42.4l-0.1,32.5l-4.9,4.9l0.1,60.1h0.8l-0.1-59.8
				L-1058.2,1009z"/>
			<path d="M-1077.4,1018.5c1.3,0,2.3-1,2.3-2.3c0-1.3-1-2.3-2.3-2.3c-1.3,0-2.3,1-2.3,2.3c0,0.5,0.2,0.9,0.4,1.3l-8.3,8.3l0.2,47.9
				h0.8l0-47.8l7.8-7.8C-1078.3,1018.4-1077.9,1018.5-1077.4,1018.5z"/>
			<path d="M-1128.9,858.3c0.7,0,1.3-0.3,1.7-0.8l3.2,3.2l0,27.2l11.7,11.7l0.1,32.9l25,24.9l0,27.5c-1.1,0.1-2,1.1-2,2.2
				c0,0.5,0.2,0.9,0.4,1.3l0.5,0.5c0.4,0.3,0.8,0.4,1.3,0.4c1.3,0,2.3-1,2.3-2.3c0-1.1-0.8-2-1.8-2.2l0-27.8l-25-24.9l-0.1-32.9
				l-11.7-11.7l0-27.2l-3.6-3.6c0.1-0.3,0.2-0.5,0.2-0.8c0-1.3-1-2.3-2.3-2.3c-1.3,0-2.3,1-2.3,2.3
				C-1131.2,857.3-1130.1,858.3-1128.9,858.3z"/>
			<path d="M-1060.9,998.7c0-1.1-0.8-2-1.9-2.2l0-20.6l-43-43.1l0.1-52.2l18-17.9c0.4,0.5,1,0.8,1.7,0.8c1.3,0,2.3-1,2.3-2.3
				c0-1.3-1-2.3-2.3-2.3c-1.3,0-2.3,1-2.3,2.3c0,0.3,0.1,0.6,0.2,0.8l-18.3,18.3l-0.1,52.8l43,43.1l0,20.3c-1.1,0.2-1.9,1.1-1.9,2.2
				c0,1.3,1,2.3,2.3,2.3C-1061.9,1001-1060.9,999.9-1060.9,998.7z"/>
			<path d="M-1048.2,868.7c-1.3,0-2.3,1-2.3,2.3c0,1.3,1,2.3,2.3,2.3c0.6,0,1.1-0.2,1.5-0.6l8.7,8.7l-0.1,43
				c-1.1,0.2-1.9,1.1-1.9,2.2c0,1.3,1,2.3,2.3,2.3c1.3,0,2.3-1,2.3-2.3c0-1.1-0.8-2-1.9-2.2h0l0.1-43.3l-9-9
				c0.2-0.3,0.3-0.7,0.3-1.1C-1046,869.7-1047,868.7-1048.2,868.7z"/>
			<path d="M-1079.2,1031.6c0-0.4-0.1-0.8-0.3-1.2l7.3-7.3l0.1-38.5l-4-4.8c0.3-0.4,0.5-0.8,0.5-1.3c0-1.3-1-2.3-2.3-2.3
				c-0.5,0-1,0.2-1.4,0.5l-0.2,0.2c-0.4,0.4-0.7,1-0.7,1.6c0,1.1,0.8,2,1.9,2.2l0.8,0c0.3-0.1,0.6-0.2,0.9-0.4l3.8,4.5l-0.1,37.9
				l-7.1,7.1c-0.4-0.3-0.9-0.5-1.4-0.5c-1.3,0-2.3,1-2.3,2.3c0,1.3,1,2.3,2.3,2.3C-1080.2,1033.8-1079.2,1032.8-1079.2,1031.6z"/>
		</g>
	</g>
</g>
<g id="Layer_2">
	<g>
		<g>
			<g>
				<path d="M72.6,11.4c0.1-0.1,0.1-0.1,0.2-0.1h2.1c0.1,0,0.1,0,0.2,0.1c0.1,0.1,0.1,0.1,0.1,0.2v15.5c0,0.1,0,0.1-0.1,0.2
					c-0.1,0.1-0.1,0.1-0.2,0.1h-2.1c-0.1,0-0.1,0-0.2-0.1c-0.1-0.1-0.1-0.1-0.1-0.2v-6.5c0-0.1,0-0.1-0.1-0.1h-5.8
					c-0.1,0-0.1,0-0.1,0.1v6.5c0,0.1,0,0.1-0.1,0.2c-0.1,0.1-0.1,0.1-0.2,0.1h-2.1c-0.1,0-0.1,0-0.2-0.1c-0.1-0.1-0.1-0.1-0.1-0.2
					V11.6c0-0.1,0-0.1,0.1-0.2c0.1-0.1,0.1-0.1,0.2-0.1h2.1c0.1,0,0.1,0,0.2,0.1c0.1,0.1,0.1,0.1,0.1,0.2V18c0,0.1,0,0.1,0.1,0.1
					h5.8c0.1,0,0.1,0,0.1-0.1v-6.4C72.5,11.5,72.6,11.5,72.6,11.4z"/>
				<path d="M89.2,13.5c-0.1,0.1-0.1,0.1-0.2,0.1h-7.8c-0.1,0-0.1,0-0.1,0.1V18c0,0.1,0,0.1,0.1,0.1h5.2c0.1,0,0.1,0,0.2,0.1
					c0.1,0.1,0.1,0.1,0.1,0.2v1.7c0,0.1,0,0.1-0.1,0.2c-0.1,0.1-0.1,0.1-0.2,0.1h-5.2c-0.1,0-0.1,0-0.1,0.1v4.4c0,0.1,0,0.1,0.1,0.1
					H89c0.1,0,0.1,0,0.2,0.1c0.1,0.1,0.1,0.1,0.1,0.2v1.7c0,0.1,0,0.1-0.1,0.2c-0.1,0.1-0.1,0.1-0.2,0.1H78.7c-0.1,0-0.1,0-0.2-0.1
					c-0.1-0.1-0.1-0.1-0.1-0.2V11.6c0-0.1,0-0.1,0.1-0.2c0.1-0.1,0.1-0.1,0.2-0.1H89c0.1,0,0.1,0,0.2,0.1c0.1,0.1,0.1,0.1,0.1,0.2
					v1.7C89.2,13.4,89.2,13.5,89.2,13.5z"/>
				<path d="M100.6,27.1l-3-6.6c0-0.1-0.1-0.1-0.1-0.1h-2.7c-0.1,0-0.1,0-0.1,0.1v6.5c0,0.1,0,0.1-0.1,0.2c-0.1,0.1-0.1,0.1-0.2,0.1
					h-2.1c-0.1,0-0.1,0-0.2-0.1c-0.1-0.1-0.1-0.1-0.1-0.2V11.6c0-0.1,0-0.1,0.1-0.2c0.1-0.1,0.1-0.1,0.2-0.1h6.3
					c0.9,0,1.8,0.2,2.5,0.6c0.7,0.4,1.3,0.9,1.7,1.6c0.4,0.7,0.6,1.5,0.6,2.4c0,1.1-0.3,2-0.8,2.7c-0.5,0.7-1.3,1.3-2.3,1.5
					c0,0-0.1,0-0.1,0c0,0,0,0.1,0,0.1l3.2,6.7c0,0.1,0,0.1,0,0.1c0,0.1-0.1,0.2-0.3,0.2h-2.2C100.8,27.3,100.7,27.3,100.6,27.1z
					 M94.6,13.7v4.6c0,0.1,0,0.1,0.1,0.1h3.4c0.7,0,1.3-0.2,1.8-0.7c0.4-0.4,0.7-1,0.7-1.7c0-0.7-0.2-1.3-0.7-1.7
					c-0.5-0.4-1-0.7-1.8-0.7h-3.4C94.6,13.6,94.6,13.7,94.6,13.7z"/>
				<path d="M115.4,11.4c0.1-0.1,0.1-0.1,0.2-0.1h2.1c0.1,0,0.1,0,0.2,0.1c0.1,0.1,0.1,0.1,0.1,0.2v15.5c0,0.1,0,0.1-0.1,0.2
					c-0.1,0.1-0.1,0.1-0.2,0.1h-2c-0.2,0-0.3-0.1-0.3-0.2l-6.6-10.8c0,0-0.1-0.1-0.1-0.1c0,0,0,0,0,0.1l0,10.7c0,0.1,0,0.1-0.1,0.2
					c-0.1,0.1-0.1,0.1-0.2,0.1h-2.1c-0.1,0-0.1,0-0.2-0.1c-0.1-0.1-0.1-0.1-0.1-0.2V11.6c0-0.1,0-0.1,0.1-0.2
					c0.1-0.1,0.1-0.1,0.2-0.1h2c0.2,0,0.3,0.1,0.3,0.2l6.6,10.8c0,0,0.1,0.1,0.1,0.1c0,0,0,0,0-0.1l0-10.7
					C115.3,11.5,115.3,11.5,115.4,11.4z"/>
				<path d="M121.4,27.3c-0.1-0.1-0.1-0.1-0.1-0.2V11.6c0-0.1,0-0.1,0.1-0.2c0.1-0.1,0.1-0.1,0.2-0.1h2.1c0.1,0,0.1,0,0.2,0.1
					c0.1,0.1,0.1,0.1,0.1,0.2v15.5c0,0.1,0,0.1-0.1,0.2c-0.1,0.1-0.1,0.1-0.2,0.1h-2.1C121.5,27.3,121.4,27.3,121.4,27.3z
					 M121.3,9.8c0-0.1,0-0.1,0-0.2l1.3-2.4c0.1-0.1,0.2-0.2,0.3-0.2h1.8c0.1,0,0.2,0,0.2,0.1c0,0.1,0,0.1,0,0.2l-1.6,2.3
					c-0.1,0.1-0.2,0.2-0.3,0.2h-1.5C121.4,9.9,121.4,9.8,121.3,9.8z"/>
			</g>
			<g>
				<path d="M72.6,38.9c0.1-0.1,0.1-0.1,0.2-0.1h2.1c0.1,0,0.1,0,0.2,0.1c0.1,0.1,0.1,0.1,0.1,0.2v15.5c0,0.1,0,0.1-0.1,0.2
					c-0.1,0.1-0.1,0.1-0.2,0.1h-2.1c-0.1,0-0.1,0-0.2-0.1c-0.1-0.1-0.1-0.1-0.1-0.2V48c0-0.1,0-0.1-0.1-0.1h-5.8
					c-0.1,0-0.1,0-0.1,0.1v6.5c0,0.1,0,0.1-0.1,0.2c-0.1,0.1-0.1,0.1-0.2,0.1h-2.1c-0.1,0-0.1,0-0.2-0.1c-0.1-0.1-0.1-0.1-0.1-0.2
					V39.1c0-0.1,0-0.1,0.1-0.2c0.1-0.1,0.1-0.1,0.2-0.1h2.1c0.1,0,0.1,0,0.2,0.1c0.1,0.1,0.1,0.1,0.1,0.2v6.4c0,0.1,0,0.1,0.1,0.1
					h5.8c0.1,0,0.1,0,0.1-0.1v-6.4C72.5,39,72.6,38.9,72.6,38.9z"/>
				<path d="M89.2,41c-0.1,0.1-0.1,0.1-0.2,0.1h-7.8c-0.1,0-0.1,0-0.1,0.1v4.3c0,0.1,0,0.1,0.1,0.1h5.2c0.1,0,0.1,0,0.2,0.1
					c0.1,0.1,0.1,0.1,0.1,0.2v1.7c0,0.1,0,0.1-0.1,0.2c-0.1,0.1-0.1,0.1-0.2,0.1h-5.2c-0.1,0-0.1,0-0.1,0.1v4.4c0,0.1,0,0.1,0.1,0.1
					H89c0.1,0,0.1,0,0.2,0.1c0.1,0.1,0.1,0.1,0.1,0.2v1.7c0,0.1,0,0.1-0.1,0.2c-0.1,0.1-0.1,0.1-0.2,0.1H78.7c-0.1,0-0.1,0-0.2-0.1
					c-0.1-0.1-0.1-0.1-0.1-0.2V39.1c0-0.1,0-0.1,0.1-0.2c0.1-0.1,0.1-0.1,0.2-0.1H89c0.1,0,0.1,0,0.2,0.1c0.1,0.1,0.1,0.1,0.1,0.2
					v1.7C89.2,40.9,89.2,41,89.2,41z"/>
				<path d="M100.6,54.6l-3-6.6c0-0.1-0.1-0.1-0.1-0.1h-2.7c-0.1,0-0.1,0-0.1,0.1v6.5c0,0.1,0,0.1-0.1,0.2c-0.1,0.1-0.1,0.1-0.2,0.1
					h-2.1c-0.1,0-0.1,0-0.2-0.1c-0.1-0.1-0.1-0.1-0.1-0.2V39.1c0-0.1,0-0.1,0.1-0.2c0.1-0.1,0.1-0.1,0.2-0.1h6.3
					c0.9,0,1.8,0.2,2.5,0.6c0.7,0.4,1.3,0.9,1.7,1.6c0.4,0.7,0.6,1.5,0.6,2.4c0,1.1-0.3,2-0.8,2.7c-0.5,0.7-1.3,1.3-2.3,1.5
					c0,0-0.1,0-0.1,0c0,0,0,0.1,0,0.1l3.2,6.7c0,0.1,0,0.1,0,0.1c0,0.1-0.1,0.2-0.3,0.2h-2.2C100.8,54.8,100.7,54.7,100.6,54.6z
					 M94.6,41.2v4.6c0,0.1,0,0.1,0.1,0.1h3.4c0.7,0,1.3-0.2,1.8-0.7c0.4-0.4,0.7-1,0.7-1.7c0-0.7-0.2-1.3-0.7-1.7
					c-0.5-0.4-1-0.7-1.8-0.7h-3.4C94.6,41.1,94.6,41.1,94.6,41.2z"/>
				<path d="M115.4,38.9c0.1-0.1,0.1-0.1,0.2-0.1h2.1c0.1,0,0.1,0,0.2,0.1c0.1,0.1,0.1,0.1,0.1,0.2v15.5c0,0.1,0,0.1-0.1,0.2
					c-0.1,0.1-0.1,0.1-0.2,0.1h-2c-0.2,0-0.3-0.1-0.3-0.2l-6.6-10.8c0,0-0.1-0.1-0.1-0.1c0,0,0,0,0,0.1l0,10.7c0,0.1,0,0.1-0.1,0.2
					c-0.1,0.1-0.1,0.1-0.2,0.1h-2.1c-0.1,0-0.1,0-0.2-0.1c-0.1-0.1-0.1-0.1-0.1-0.2V39.1c0-0.1,0-0.1,0.1-0.2
					c0.1-0.1,0.1-0.1,0.2-0.1h2c0.2,0,0.3,0.1,0.3,0.2l6.6,10.8c0,0,0.1,0.1,0.1,0.1c0,0,0,0,0-0.1l0-10.7
					C115.3,39,115.3,38.9,115.4,38.9z"/>
				<path d="M125.2,54.7c-0.1-0.1-0.1-0.1-0.1-0.2v-6.1c0-0.1,0-0.1,0-0.1l-4.7-9.1c0-0.1,0-0.1,0-0.1c0-0.1,0.1-0.2,0.3-0.2h2.3
					c0.2,0,0.3,0.1,0.3,0.2l3.2,6.4c0,0.1,0.1,0.1,0.1,0l3.2-6.4c0.1-0.1,0.2-0.2,0.3-0.2h2.3c0.1,0,0.2,0,0.2,0.1
					c0,0.1,0,0.1,0,0.2l-4.7,9.1c0,0.1,0,0.1,0,0.1v6.1c0,0.1,0,0.1-0.1,0.2c-0.1,0.1-0.1,0.1-0.2,0.1h-2.1
					C125.3,54.8,125.3,54.8,125.2,54.7z M125.2,37.3c0-0.1,0-0.1,0-0.2l1.3-2.4c0.1-0.1,0.2-0.2,0.3-0.2h1.8c0.1,0,0.2,0,0.2,0.1
					c0,0.1,0,0.1,0,0.2l-1.6,2.3c-0.1,0.1-0.2,0.2-0.3,0.2h-1.5C125.3,37.4,125.2,37.3,125.2,37.3z"/>
			</g>
			<g>
				<g>
					<path d="M152,27l-5-15.5c0-0.2-0.1-0.2-0.3-0.2h-2.9c-0.2,0-0.3,0.1-0.3,0.2l-5,15.5c0,0.1,0,0.2,0,0.2c0,0.1,0.1,0.1,0.2,0.1
						h2.3c0.1,0,0.2,0,0.2-0.1l3.9-12.6c0-0.1,0-0.1,0.1-0.1c0,0,0.1,0,0.1,0.1l4,12.6c0,0,0.1,0,0.1,0h2.3c0.2,0,0.3-0.1,0.3-0.2
						C152,27.1,152,27.1,152,27z"/>
				</g>
				<path d="M163.1,27.1l-3-6.6c0-0.1-0.1-0.1-0.1-0.1h-2.7c-0.1,0-0.1,0-0.1,0.1v6.5c0,0.1,0,0.1-0.1,0.2c-0.1,0.1-0.1,0.1-0.2,0.1
					h-2.1c-0.1,0-0.1,0-0.2-0.1c-0.1-0.1-0.1-0.1-0.1-0.2V11.6c0-0.1,0-0.1,0.1-0.2c0.1-0.1,0.1-0.1,0.2-0.1h6.3
					c0.9,0,1.8,0.2,2.5,0.6c0.7,0.4,1.3,0.9,1.7,1.6c0.4,0.7,0.6,1.5,0.6,2.4c0,1.1-0.3,2-0.8,2.7c-0.5,0.7-1.3,1.3-2.3,1.5
					c0,0-0.1,0-0.1,0c0,0,0,0.1,0,0.1l3.2,6.7c0,0.1,0,0.1,0,0.1c0,0.1-0.1,0.2-0.3,0.2h-2.2C163.2,27.3,163.1,27.3,163.1,27.1z
					 M157.1,13.7v4.6c0,0.1,0,0.1,0.1,0.1h3.4c0.7,0,1.3-0.2,1.8-0.7c0.4-0.4,0.7-1,0.7-1.7c0-0.7-0.2-1.3-0.7-1.7
					c-0.5-0.4-1-0.7-1.8-0.7h-3.4C157.1,13.6,157.1,13.7,157.1,13.7z"/>
				<path d="M170.8,26.9c-0.9-0.5-1.5-1.1-2-1.9c-0.5-0.8-0.7-1.7-0.7-2.8v-5.7c0-1.1,0.2-2,0.7-2.8c0.5-0.8,1.1-1.4,2-1.9
					c0.9-0.4,1.9-0.7,3-0.7c1.1,0,2.1,0.2,3,0.6c0.9,0.4,1.5,1,2,1.8s0.7,1.7,0.7,2.7c0,0.1,0,0.1-0.1,0.2c-0.1,0.1-0.1,0.1-0.2,0.1
					l-2.1,0.1c-0.2,0-0.3-0.1-0.3-0.3c0-0.9-0.3-1.6-0.8-2.2c-0.6-0.5-1.3-0.8-2.2-0.8c-0.9,0-1.7,0.3-2.2,0.8s-0.8,1.3-0.8,2.2v5.8
					c0,0.9,0.3,1.6,0.8,2.2c0.6,0.5,1.3,0.8,2.2,0.8c0.9,0,1.7-0.3,2.2-0.8c0.6-0.5,0.8-1.3,0.8-2.2c0-0.2,0.1-0.3,0.3-0.3l2.1,0.1
					c0.1,0,0.1,0,0.2,0.1c0.1,0,0.1,0.1,0.1,0.2c0,1-0.2,2-0.7,2.7c-0.5,0.8-1.1,1.4-2,1.8c-0.9,0.4-1.9,0.6-3,0.6
					C172.6,27.5,171.6,27.3,170.8,26.9z"/>
				<path d="M191.2,11.4c0.1-0.1,0.1-0.1,0.2-0.1h2.1c0.1,0,0.1,0,0.2,0.1c0.1,0.1,0.1,0.1,0.1,0.2v15.5c0,0.1,0,0.1-0.1,0.2
					c-0.1,0.1-0.1,0.1-0.2,0.1h-2.1c-0.1,0-0.1,0-0.2-0.1c-0.1-0.1-0.1-0.1-0.1-0.2v-6.5c0-0.1,0-0.1-0.1-0.1h-5.8
					c-0.1,0-0.1,0-0.1,0.1v6.5c0,0.1,0,0.1-0.1,0.2c-0.1,0.1-0.1,0.1-0.2,0.1h-2.1c-0.1,0-0.1,0-0.2-0.1c-0.1-0.1-0.1-0.1-0.1-0.2
					V11.6c0-0.1,0-0.1,0.1-0.2c0.1-0.1,0.1-0.1,0.2-0.1h2.1c0.1,0,0.1,0,0.2,0.1c0.1,0.1,0.1,0.1,0.1,0.2V18c0,0.1,0,0.1,0.1,0.1
					h5.8c0.1,0,0.1,0,0.1-0.1v-6.4C191.1,11.5,191.1,11.5,191.2,11.4z"/>
				<path d="M197,27.3c-0.1-0.1-0.1-0.1-0.1-0.2V11.6c0-0.1,0-0.1,0.1-0.2c0.1-0.1,0.1-0.1,0.2-0.1h2.1c0.1,0,0.1,0,0.2,0.1
					c0.1,0.1,0.1,0.1,0.1,0.2v15.5c0,0.1,0,0.1-0.1,0.2c-0.1,0.1-0.1,0.1-0.2,0.1h-2.1C197.1,27.3,197.1,27.3,197,27.3z"/>
				<g>
					<path d="M208.8,24C208.8,24,208.7,24.1,208.8,24c-0.1,0.1-0.1,0.1-0.1,0l-2.4-7.7c0,0-0.3-0.9-0.7-2.3c0,0,0,0,0,0l-0.8-2.4
						c0-0.2-0.1-0.2-0.3-0.2h-2.3c-0.2,0-0.3,0.1-0.3,0.2c0,0,0,0.1,0,0.1l5,15.5c0,0.2,0.1,0.2,0.3,0.2h2.9c0.2,0,0.3-0.1,0.3-0.2
						l5-15.5c0-0.1,0-0.2,0-0.2c0-0.1-0.1-0.1-0.2-0.1h-2.3c-0.2,0-0.3,0.1-0.3,0.2l-0.8,2.4c0,0,0,0,0,0c-0.4,1.4-0.7,2.3-0.7,2.3
						L208.8,24z"/>
				</g>
			</g>
			<g>
				<g>
					<path d="M145.2,42.2C145.2,42.1,145.3,42.1,145.2,42.2c0.1-0.1,0.1-0.1,0.1,0l2.4,7.7c0,0,0.3,0.9,0.7,2.3c0,0,0,0,0,0l0.8,2.4
						c0,0.2,0.1,0.2,0.3,0.2h2.3c0.2,0,0.3-0.1,0.3-0.2c0,0,0-0.1,0-0.1L147,39c0-0.2-0.1-0.2-0.3-0.2h-2.9c-0.2,0-0.3,0.1-0.3,0.2
						l-5,15.5c0,0.1,0,0.2,0,0.2c0,0.1,0.1,0.1,0.2,0.1h2.3c0.2,0,0.3-0.1,0.3-0.2l0.8-2.4c0,0,0,0,0,0c0.4-1.4,0.7-2.3,0.7-2.3
						L145.2,42.2z"/>
				</g>
				<g>
					<path d="M208.8,51.5C208.8,51.5,208.7,51.5,208.8,51.5c-0.1,0.1-0.1,0.1-0.1,0l-2.4-7.7c0,0-0.3-0.9-0.7-2.3c0,0,0,0,0,0
						l-0.8-2.4c0-0.2-0.1-0.2-0.3-0.2h-2.3c-0.2,0-0.3,0.1-0.3,0.2c0,0,0,0.1,0,0.1l5,15.5c0,0.2,0.1,0.2,0.3,0.2h2.9
						c0.2,0,0.3-0.1,0.3-0.2l5-15.5c0-0.1,0-0.2,0-0.2c0-0.1-0.1-0.1-0.2-0.1h-2.3c-0.2,0-0.3,0.1-0.3,0.2l-0.8,2.4c0,0,0,0,0,0
						c-0.4,1.4-0.7,2.3-0.7,2.3L208.8,51.5z"/>
				</g>
				<path d="M163.1,54.6l-3-6.6c0-0.1-0.1-0.1-0.1-0.1h-2.7c-0.1,0-0.1,0-0.1,0.1v6.5c0,0.1,0,0.1-0.1,0.2c-0.1,0.1-0.1,0.1-0.2,0.1
					h-2.1c-0.1,0-0.1,0-0.2-0.1c-0.1-0.1-0.1-0.1-0.1-0.2V39.1c0-0.1,0-0.1,0.1-0.2c0.1-0.1,0.1-0.1,0.2-0.1h6.3
					c0.9,0,1.8,0.2,2.5,0.6c0.7,0.4,1.3,0.9,1.7,1.6c0.4,0.7,0.6,1.5,0.6,2.4c0,1.1-0.3,2-0.8,2.7s-1.3,1.3-2.3,1.5c0,0-0.1,0-0.1,0
					c0,0,0,0.1,0,0.1l3.2,6.7c0,0.1,0,0.1,0,0.1c0,0.1-0.1,0.2-0.3,0.2h-2.2C163.2,54.8,163.1,54.7,163.1,54.6z M157.1,41.2v4.6
					c0,0.1,0,0.1,0.1,0.1h3.4c0.7,0,1.3-0.2,1.8-0.7c0.4-0.4,0.7-1,0.7-1.7c0-0.7-0.2-1.3-0.7-1.7c-0.5-0.4-1-0.7-1.8-0.7h-3.4
					C157.1,41.1,157.1,41.1,157.1,41.2z"/>
				<path d="M170.8,54.3c-0.9-0.5-1.5-1.1-2-1.9s-0.7-1.7-0.7-2.8V44c0-1.1,0.2-2,0.7-2.8s1.1-1.4,2-1.9c0.9-0.4,1.9-0.7,3-0.7
					c1.1,0,2.1,0.2,3,0.6c0.9,0.4,1.5,1,2,1.8s0.7,1.7,0.7,2.7c0,0.1,0,0.1-0.1,0.2c-0.1,0.1-0.1,0.1-0.2,0.1l-2.1,0.1
					c-0.2,0-0.3-0.1-0.3-0.3c0-0.9-0.3-1.6-0.8-2.2c-0.6-0.5-1.3-0.8-2.2-0.8c-0.9,0-1.7,0.3-2.2,0.8s-0.8,1.3-0.8,2.2v5.8
					c0,0.9,0.3,1.6,0.8,2.2s1.3,0.8,2.2,0.8c0.9,0,1.7-0.3,2.2-0.8c0.6-0.5,0.8-1.3,0.8-2.2c0-0.2,0.1-0.3,0.3-0.3l2.1,0.1
					c0.1,0,0.1,0,0.2,0.1c0.1,0,0.1,0.1,0.1,0.2c0,1-0.2,2-0.7,2.7c-0.5,0.8-1.1,1.4-2,1.8c-0.9,0.4-1.9,0.6-3,0.6
					C172.6,55,171.6,54.8,170.8,54.3z"/>
				<path d="M191.2,38.9c0.1-0.1,0.1-0.1,0.2-0.1h2.1c0.1,0,0.1,0,0.2,0.1c0.1,0.1,0.1,0.1,0.1,0.2v15.5c0,0.1,0,0.1-0.1,0.2
					c-0.1,0.1-0.1,0.1-0.2,0.1h-2.1c-0.1,0-0.1,0-0.2-0.1c-0.1-0.1-0.1-0.1-0.1-0.2V48c0-0.1,0-0.1-0.1-0.1h-5.8
					c-0.1,0-0.1,0-0.1,0.1v6.5c0,0.1,0,0.1-0.1,0.2c-0.1,0.1-0.1,0.1-0.2,0.1h-2.1c-0.1,0-0.1,0-0.2-0.1c-0.1-0.1-0.1-0.1-0.1-0.2
					V39.1c0-0.1,0-0.1,0.1-0.2c0.1-0.1,0.1-0.1,0.2-0.1h2.1c0.1,0,0.1,0,0.2,0.1c0.1,0.1,0.1,0.1,0.1,0.2v6.4c0,0.1,0,0.1,0.1,0.1
					h5.8c0.1,0,0.1,0,0.1-0.1v-6.4C191.1,39,191.1,38.9,191.2,38.9z"/>
				<path d="M197,54.7c-0.1-0.1-0.1-0.1-0.1-0.2V39.1c0-0.1,0-0.1,0.1-0.2c0.1-0.1,0.1-0.1,0.2-0.1h2.1c0.1,0,0.1,0,0.2,0.1
					c0.1,0.1,0.1,0.1,0.1,0.2v15.5c0,0.1,0,0.1-0.1,0.2c-0.1,0.1-0.1,0.1-0.2,0.1h-2.1C197.1,54.8,197.1,54.8,197,54.7z M197,37.2
					c0-0.1,0-0.1,0-0.2l1.3-2.4c0.1-0.1,0.2-0.2,0.3-0.2h1.8c0.1,0,0.2,0,0.2,0.1c0,0.1,0,0.1,0,0.2l-1.6,2.3
					c-0.1,0.1-0.2,0.2-0.3,0.2h-1.5C197.1,37.3,197,37.3,197,37.2z"/>
			</g>
		</g>
		<g>
			<path class="st3" d="M37.8,55.2v-8.5l-6.9-6.1V21.5l6.9-6.1V6.8c1.4-0.4,2.5-1.8,2.5-3.3c0-1.9-1.6-3.5-3.5-3.5s-3.5,1.6-3.5,3.5
				c0,1.6,1.1,2.9,2.5,3.3v7.6l-6.9,6.1v20.8l6.9,6.1v7.6c-1.4,0.4-2.5,1.8-2.5,3.3c0,1.9,1.6,3.5,3.5,3.5s3.5-1.6,3.5-3.5
				C40.3,56.9,39.3,55.6,37.8,55.2z M35.3,3.5C35.3,2.7,36,2,36.8,2s1.5,0.7,1.5,1.5S37.7,5,36.8,5S35.3,4.3,35.3,3.5z M36.8,60
				c-0.8,0-1.5-0.7-1.5-1.5S36,57,36.8,57s1.5,0.7,1.5,1.5S37.7,60,36.8,60z"/>
			<path class="st3" d="M12.1,6.8c1.4-0.4,2.5-1.8,2.5-3.3c0-1.9-1.6-3.5-3.5-3.5S7.6,1.6,7.6,3.5c0,1.6,1.1,2.9,2.5,3.3v8.5
				l6.9,6.1v19.1l-6.9,6.1v8.5c-1.4,0.4-2.5,1.8-2.5,3.3c0,1.9,1.6,3.5,3.5,3.5s3.5-1.6,3.5-3.5c0-1.6-1.1-2.9-2.5-3.3v-7.6l6.9-6.1
				V20.6l-6.9-6.1V6.8z M12.6,58.5c0,0.8-0.7,1.5-1.5,1.5s-1.5-0.7-1.5-1.5s0.7-1.5,1.5-1.5S12.6,57.7,12.6,58.5z M9.6,3.5
				c0-0.8,0.7-1.5,1.5-1.5s1.5,0.7,1.5,1.5S11.9,5,11.1,5S9.6,4.3,9.6,3.5z"/>
			<path class="st3" d="M12.2,40.1V21.9l-5.6-5c0.6-1.3,0.4-2.9-0.6-4c-1.4-1.4-3.6-1.4-4.9,0s-1.4,3.6,0,4.9c0.7,0.7,1.6,1,2.5,1
				c0.6,0,1.2-0.2,1.8-0.5l5,4.4v16.4l-5,4.5c-1.3-0.8-3.1-0.6-4.2,0.6c-1.4,1.4-1.4,3.6,0,5c0.7,0.7,1.6,1,2.5,1
				c0.9,0,1.8-0.3,2.5-1c1.1-1.1,1.3-2.7,0.6-4.1L12.2,40.1z M2.4,16.4c-0.6-0.6-0.6-1.5,0-2.1c0.3-0.3,0.7-0.4,1.1-0.4
				c0.4,0,0.8,0.1,1.1,0.4c0.6,0.6,0.6,1.5,0,2.1C4,17,3,17,2.4,16.4z M4.6,47.7c-0.6,0.6-1.5,0.6-2.1,0c-0.6-0.6-0.6-1.5,0-2.1
				c0.3-0.3,0.7-0.4,1.1-0.4s0.8,0.1,1.1,0.4C5.1,46.2,5.1,47.1,4.6,47.7z"/>
			<path class="st3" d="M42.7,43.7l-5-4.4V22.8l5-4.5c0.5,0.3,1.1,0.5,1.7,0.5c0.9,0,1.8-0.3,2.5-1c1.4-1.4,1.4-3.6,0-4.9
				c-1.4-1.4-3.6-1.4-4.9,0c-1.1,1.1-1.3,2.7-0.6,4.1l-5.6,5v18.2l5.6,5c-0.6,1.3-0.4,2.9,0.6,4c0.7,0.7,1.6,1,2.5,1s1.8-0.3,2.5-1
				c1.4-1.4,1.4-3.6,0-5C45.8,43,44,42.9,42.7,43.7z M43.4,14.3c0.3-0.3,0.7-0.4,1.1-0.4s0.8,0.1,1.1,0.4c0.6,0.6,0.6,1.5,0,2.1
				s-1.5,0.6-2.1,0S42.8,14.9,43.4,14.3z M45.5,47.7c-0.6,0.6-1.5,0.6-2.1,0c-0.6-0.6-0.6-1.5,0-2.1c0.3-0.3,0.7-0.4,1.1-0.4
				s0.8,0.1,1.1,0.4C46.1,46.2,46.1,47.1,45.5,47.7z"/>
			<path class="st3" d="M27.5,8.5C27.5,6.6,25.9,5,24,5s-3.5,1.6-3.5,3.5c0,1.6,1.1,2.9,2.5,3.3v38.3c-1.4,0.4-2.5,1.8-2.5,3.3
				c0,1.9,1.6,3.5,3.5,3.5s3.5-1.6,3.5-3.5c0-1.6-1.1-2.9-2.5-3.3V11.8C26.4,11.4,27.5,10.1,27.5,8.5z M22.5,8.5
				C22.5,7.7,23.1,7,24,7s1.5,0.7,1.5,1.5S24.8,10,24,10S22.5,9.3,22.5,8.5z M25.5,53.5c0,0.8-0.7,1.5-1.5,1.5s-1.5-0.7-1.5-1.5
				S23.1,52,24,52S25.5,52.7,25.5,53.5z"/>
		</g>
	</g>
</g>
</svg>
